<svg xmlns="http://www.w3.org/2000/svg" width="100" height="100" fill="white">
  <rect x="0" y="0" width="100" height="100" fill="black" />
  <path d="M 45.3851,15.410862 C 45.55835,15.397362 45.75185,15.382737 45.9521,15.366987 V 10.149238 C 45.9521,8.8026125 46.4696,6.5447375 49.931225,6.5447375 C 53.39285,6.5447375 53.909225,8.8026125 53.909225,10.149238 V 15.354613 C 54.13535,15.374862 54.33335,15.393987 54.47735,15.410862 C 70.57385,17.226612 82.6811,28.531737 82.6811,41.793237 C 82.6811,42.866488 82.6226,43.935237 82.506725,44.962362 C 82.39535,46.254987 82.126475,48.366612 81.894725,49.770612 C 81.79235,50.388237 81.694475,51.017112 81.5921,51.668488 C 81.24335,53.906112 80.848475,56.442987 80.108225,59.715612 C 79.226225,63.624987 78.20585,67.182237 77.237225,69.730362 C 73.7531,78.911487 65.298725,88.893612 54.2681,90.498987 C 54.1646,90.516987 54.008225,90.534987 53.8496,90.551862 L 53.3456,90.611487 L 53.317475,86.928237 L 53.3366,86.677362 L 53.6471,86.632362 C 60.452225,85.650238 69.2126,79.704612 73.448225,68.636862 C 74.27735,66.466737 75.155975,63.357237 76.058225,59.393862 C 76.2461,58.573737 76.3541,57.999987 76.460975,57.405987 C 73.01285,61.675363 68.52635,64.719612 62.7956,66.690612 L 62.720225,66.719862 C 60.445475,67.642362 57.61385,68.789862 55.3076,71.431362 C 55.142225,71.620362 54.9926,71.804862 54.86885,71.956737 C 54.775475,72.106362 54.615725,72.197487 54.440225,72.197487 C 53.9801,72.197487 53.9351,71.373987 53.9351,71.364987 C 53.9351,71.273862 53.965475,71.189487 53.985725,71.144487 C 54.012725,71.087112 54.0476,71.018487 54.0791,70.957738 L 54.20735,70.722612 C 54.30185,70.549362 54.39635,70.383987 54.491975,70.221987 C 55.21535,68.978862 56.01635,67.943862 57.086225,66.867237 C 59.1731,64.767988 61.3736,63.523737 63.07235,62.668737 C 63.217475,62.605737 63.458225,62.492112 63.6011,62.424612 C 65.8196,61.370487 67.697225,60.246612 69.34535,58.988862 C 69.61985,58.786362 70.19135,58.344237 70.934975,57.664737 L 71.090225,57.521862 C 71.2826,57.341862 71.4851,57.147237 71.69435,56.939112 L 71.848475,56.786113 C 73.7666,54.848862 76.346225,51.627988 77.747975,47.276488 C 78.25535,45.837612 78.836975,43.842987 78.836975,41.163237 C 78.836975,28.712862 65.870225,18.584487 49.931225,18.584487 C 33.992225,18.584487 21.025475,28.712862 21.025475,41.163237 C 21.025475,43.844112 21.6071,45.838737 22.1156,47.283237 C 23.51735,51.629112 26.09585,54.849987 28.0151,56.787238 L 28.166975,56.939112 C 28.37735,57.147237 28.57985,57.341862 28.7711,57.520737 L 28.927475,57.663612 C 29.669975,58.343112 30.2426,58.786362 30.520475,58.991112 C 32.1641,60.246612 34.04285,61.370487 36.26135,62.424612 C 36.404225,62.492112 36.64385,62.605737 36.8036,62.675487 C 38.487725,63.523737 40.6871,64.766863 42.776225,66.867237 C 43.847225,67.946112 44.648225,68.981112 45.370475,70.221987 C 45.4661,70.383987 45.559475,70.549362 45.653975,70.721487 L 45.86885,71.128737 C 45.9071,71.200737 45.926225,71.282862 45.926225,71.364987 C 45.926225,71.373987 45.8801,72.197487 45.4211,72.197487 C 45.273725,72.197487 45.131975,72.128862 45.02735,72.003987 C 44.8811,71.819487 44.7236,71.624862 44.55485,71.431362 C 42.247475,68.789862 39.41585,67.642362 37.142225,66.719862 L 37.08035,66.695112 C 31.337225,64.719612 26.8496,61.675363 23.4026,57.405987 C 23.509475,57.999987 23.61635,58.573737 23.8031,59.394987 C 24.7076,63.361738 25.5851,66.470112 26.414225,68.636862 C 30.648725,79.704612 39.410225,85.650238 46.220975,86.633487 L 46.57985,86.685237 L 46.558475,90.615987 L 46.02635,90.552987 C 45.8621,90.534987 45.698975,90.516987 45.599975,90.500112 C 34.56485,88.894737 26.10935,78.911487 22.625225,69.731487 C 21.655475,67.179987 20.636225,63.622737 19.754225,59.715612 C 19.01735,56.451987 18.6191,53.910613 18.269225,51.668488 L 18.251225,51.548113 C 18.156725,50.939487 18.06335,50.349987 17.967725,49.770612 C 17.8496,49.056238 17.454725,46.599237 17.3276,44.965737 C 17.227475,43.917237 17.18135,42.939613 17.18135,41.793237 C 17.18135,28.531737 29.2886,17.226612 45.3851,15.410862"/>
  <path d="M 49.97465,31.388787 C 63.124775,31.388787 74.095775,38.120787 74.50865,47.116287 C 72.205775,52.056162 68.00615,56.667537 62.15165,59.545287 L 62.0189,59.607162 C 60.260525,60.548787 58.372775,61.650162 56.091275,63.945162 C 54.96065,65.083662 54.115775,66.177163 53.348525,67.493412 C 53.251775,67.661037 53.15615,67.828662 53.0594,68.004162 L 52.92215,68.257287 C 52.660025,68.755662 52.493525,69.211287 52.34615,69.614037 C 52.300025,69.741162 52.255025,69.864912 52.207775,69.986412 H 52.2044 C 51.278525,73.084662 51.4754,78.246162 51.4754,82.691037 C 51.4754,85.631787 51.49115,94.805037 51.530525,99.762912 C 51.0884,99.780912 50.6159,99.793287 50.011775,99.793287 C 49.3784,99.793287 48.8294,99.779787 48.3569,99.760662 C 48.396275,94.801662 48.454775,85.648662 48.454775,82.712412 C 48.454775,78.266413 48.652775,73.103788 47.72465,70.005537 L 47.59415,69.654538 C 47.43215,69.211287 47.26565,68.755662 47.008025,68.264037 L 46.86965,68.012037 C 46.774025,67.834287 46.6739,67.659912 46.5749,67.490037 C 45.80765,66.174912 44.962775,65.081412 43.8344,63.945162 C 41.65865,61.755912 39.373775,60.466662 37.62665,59.586912 C 37.4489,59.507037 37.225025,59.402412 37.094525,59.340537 C 33.45965,57.613662 30.9329,55.702287 28.994525,53.561412 C 28.965275,53.112537 28.947275,53.189037 28.963025,52.633287 C 29.09915,47.477412 32.774525,43.218162 35.998775,41.572288 C 35.6354,41.131287 34.581275,40.466412 33.980525,40.293162 C 33.053525,40.025413 32.443775,40.078287 32.05115,40.223412 C 30.713525,40.901788 28.906775,42.571287 27.687275,44.918037 C 26.701775,46.812537 26.24615,48.027537 26.1134,49.585663 C 25.783775,49.023163 25.5329,47.942037 25.399025,47.288412 C 25.696025,38.198412 36.6884,31.388787 49.97465,31.388787"/>
  <path d="M 53.430875,99.690237 L 53.76275,99.681237 C 79.519625,97.718112 99.715625,75.907737 99.715625,50.030487 C 99.715625,22.571487 77.3765,0.2312375 49.916375,0.2312375 C 22.457375,0.2312375 0.11825,22.571487 0.11825,50.030487 C 0.11825,75.940362 20.34125,97.752987 46.16,99.687987 L 46.491875,99.711612 L 46.48625,99.406737 V 95.714487 L 46.224125,95.693112 C 34.796375,94.777362 24.180875,89.620362 16.335125,81.170487 C 8.43875,72.668862 4.090625,61.608988 4.090625,50.030487 C 4.090625,24.761862 24.648875,4.2047375 49.916375,4.2047375 C 75.185,4.2047375 95.742125,24.761862 95.742125,50.030487 C 95.742125,61.598862 91.401875,72.649737 83.519,81.150238 C 75.692375,89.588862 65.099375,94.751487 53.691875,95.686362 L 53.430875,95.707737 Z"/>
</svg>
