<?xml version="1.0" standalone="no"?>
<!DOCTYPE svg PUBLIC "-//W3C//DTD SVG 20010904//EN"
 "http://www.w3.org/TR/2001/REC-SVG-20010904/DTD/svg10.dtd">
<svg version="1.0" xmlns="http://www.w3.org/2000/svg"
 width="700.000000pt" height="700.000000pt" viewBox="0 0 700.000000 700.000000"
 preserveAspectRatio="xMidYMid meet">
<metadata>
Created by potrace 1.14, written by Peter Selinger 2001-2017
</metadata>
<g transform="translate(0.000000,700.000000) scale(0.100000,-0.100000)"
fill="#000000" stroke="none">
<path d="M0 3500 l0 -3500 3500 0 3500 0 0 3500 0 3500 -3500 0 -3500 0 0
-3500z m3970 3452 c491 -74 930 -230 1335 -477 413 -251 799 -619 1074 -1025
758 -1116 801 -2566 112 -3724 -161 -269 -306 -453 -550 -696 -315 -313 -625
-530 -1008 -704 -366 -167 -682 -251 -1135 -301 l-58 -6 0 140 c0 78 4 141 8
141 4 0 64 7 132 15 601 74 1160 311 1635 694 97 78 333 309 420 411 380 447
628 981 724 1562 64 386 52 831 -35 1214 -277 1235 -1262 2198 -2504 2448
-246 49 -535 70 -792 56 -834 -46 -1581 -392 -2163 -1002 -482 -505 -787
-1166 -860 -1860 -17 -169 -20 -488 -5 -639 88 -883 526 -1683 1220 -2226 482
-377 1039 -600 1673 -668 l57 -6 0 -140 0 -140 -62 6 c-609 62 -1123 244
-1613 570 -733 488 -1249 1218 -1464 2070 -73 291 -96 490 -96 835 0 347 24
549 100 849 359 1423 1583 2476 3045 2620 165 16 654 6 810 -17z m-330 -436
c45 -23 87 -63 108 -101 14 -25 18 -71 22 -259 l5 -230 124 -17 c926 -134
1663 -724 1846 -1479 64 -266 57 -479 -36 -1060 -133 -837 -302 -1363 -563
-1753 -290 -436 -658 -739 -1065 -881 -102 -36 -275 -76 -325 -76 l-26 0 0
135 0 135 28 5 c195 40 353 99 505 189 150 89 248 166 378 296 240 239 420
534 534 875 42 126 152 539 170 640 l7 40 -97 -103 c-218 -231 -488 -404 -820
-526 -243 -90 -407 -187 -534 -317 -43 -43 -85 -79 -94 -79 -20 0 -32 40 -23
74 12 50 132 214 220 301 117 116 236 196 471 318 104 54 232 126 285 161 322
215 565 534 685 899 56 174 70 254 69 422 0 351 -134 659 -409 944 -321 332
-768 542 -1305 613 -157 21 -509 15 -675 -10 -253 -39 -472 -105 -674 -202
-236 -114 -370 -209 -547 -385 -226 -226 -350 -448 -411 -735 -24 -116 -24
-344 0 -460 92 -438 360 -833 737 -1085 53 -35 181 -108 286 -162 272 -141
411 -241 530 -379 60 -69 152 -207 160 -241 9 -33 -4 -73 -23 -73 -9 0 -53 37
-97 83 -45 45 -113 104 -153 130 -84 56 -260 141 -388 187 -308 111 -561 272
-782 496 -141 142 -133 153 -72 -106 79 -333 156 -565 249 -751 206 -411 517
-734 885 -917 140 -70 236 -102 413 -138 21 -4 22 -7 22 -139 l0 -135 -27 0
c-48 0 -210 38 -318 74 -401 135 -780 447 -1071 883 -268 401 -432 920 -573
1818 -66 420 -80 595 -62 770 32 291 116 522 280 766 288 430 779 752 1361
893 65 16 278 53 335 58 l30 3 5 230 c4 168 9 237 19 255 31 56 85 100 151
121 45 15 211 5 250 -15z m150 -1731 c401 -47 736 -169 998 -364 106 -79 247
-231 305 -329 59 -97 103 -221 115 -320 l8 -72 -42 -80 c-175 -327 -441 -584
-811 -783 -153 -83 -209 -118 -303 -194 -204 -165 -366 -390 -414 -575 -38
-149 -41 -226 -40 -1149 l1 -897 -54 -5 c-29 -3 -78 -3 -108 0 l-55 6 0 872
c0 900 -4 1020 -41 1165 -41 158 -138 318 -282 462 -125 125 -247 209 -462
320 -99 51 -225 122 -280 159 -127 85 -283 222 -291 256 -10 37 3 178 22 248
21 79 81 207 135 286 58 85 179 205 261 258 l67 43 -27 23 c-47 39 -114 67
-173 72 -50 5 -64 2 -103 -21 -156 -91 -328 -345 -373 -549 -15 -72 -18 -77
-29 -55 -28 53 -38 143 -26 222 67 430 480 788 1087 941 112 29 273 56 395 68
100 10 409 5 520 -8z"/>
</g>
</svg>
